<svg width="132" height="47" viewBox="0 0 132 47" fill="none" xmlns="http://www.w3.org/2000/svg">
<g clip-path="url(#clip0_589_281)">
<path d="M20.0964 10.8945C20.0964 10.8945 16.4044 13.2348 15.0822 14.2182C13.7699 15.1959 9.40735 19.3958 14.4794 24.0708C14.4794 24.0708 15.7716 25.0876 18.1703 25.89C18.3516 25.9511 18.3916 26.199 18.2382 26.3154L17.3541 26.9852C16.6124 27.5479 15.855 28.0897 15.0766 28.5958C13.8222 29.4109 11.3534 31.5068 13.3529 34.4455C13.3529 34.4455 14.4594 36.063 16.7313 35.7933C17.3708 35.7172 17.9835 35.4854 18.5362 35.1442C20.0998 34.1804 24.6091 31.3362 25.8869 29.8121C27.2714 28.1612 27.8085 24.2725 25.054 21.9333C24.5691 21.5217 24.0164 21.2047 23.4315 20.9695C22.8966 20.7551 20.6046 20.5983 19.9685 20.2616C19.5259 20.0276 20.9238 19.1503 21.3708 18.9254C21.3797 18.9208 21.3886 18.9162 21.3975 18.9116C22.0114 18.6073 23.139 17.7818 23.7584 17.3472C24.0097 17.1708 24.3523 17.2503 24.5068 17.5212C24.7526 17.9501 25.0428 18.5773 25.1674 18.5588C25.3709 18.5289 25.8669 17.693 26.6053 15.0126C26.6053 15.0126 27.8096 11.4767 27.8486 10.2477C27.8486 10.2477 27.9453 9.94565 26.6631 9.88454C25.3809 9.82344 20.0364 8.85733 19.3947 9.13863C19.3947 9.13863 19.2068 9.25277 19.7773 9.89723C20.3477 10.5417 20.0942 10.891 20.0942 10.891L20.0964 10.8945Z" fill="url(#paint0_linear_589_281)"/>
<path fill-rule="evenodd" clip-rule="evenodd" d="M19.9742 3.8987L35.7283 14.062L35.8457 31.9388L19.8089 42.1654L3.75816 31.8346V14.028L19.9742 3.8987ZM19.7008 42.2344C19.701 42.2343 19.7012 42.2341 19.7015 42.234L19.7008 42.2344ZM18.4175 0.967792C19.3876 0.362338 20.6057 0.369213 21.5702 0.990432L37.5264 11.2841L37.5267 11.2843C38.4094 11.8524 38.9452 12.8501 38.9525 13.9219L39.0714 32.0361C39.0786 33.1286 38.5363 34.1493 37.6342 34.7235C37.6335 34.7239 37.6327 34.7245 37.632 34.725L21.3907 45.082C20.4162 45.7035 19.1875 45.7 18.2158 45.0754L18.2151 45.075L1.96017 34.6126L1.96006 34.6124C1.07301 34.0414 0.533203 33.0366 0.533203 31.953V13.9081C0.533203 12.8109 1.08664 11.7934 1.99398 11.2266L18.4175 0.967792Z" fill="url(#paint1_linear_589_281)"/>
<path d="M16.0475 13.538C16.0475 13.538 14.5896 16.1724 16.5201 17.2607C16.5201 17.2607 20.3745 19.4765 23.0679 20.7309C23.6462 21.0006 24.3145 21.2865 24.8172 21.6877C25.6801 22.376 26.3741 22.9617 26.7699 24.1411C27.0146 24.8697 27.2014 25.8935 27.0891 26.7547C27.0891 26.7547 27.0202 30.3194 22.9967 32.2124C22.9967 32.2124 25.3977 29.1469 21.3865 27.3138C21.3865 27.3138 15.2213 25.2513 13.8879 24.4189C12.4233 23.5058 9.73661 20.6721 13.254 15.9706C13.254 15.9706 14.5607 14.3416 16.0464 13.5369L16.0475 13.538Z" fill="url(#paint2_linear_589_281)"/>
<path d="M46.5156 29.9573V26.8399C47.0605 27.3137 47.6521 27.67 48.2915 27.9063C48.9309 28.1438 49.5759 28.2614 50.2265 28.2614C50.6079 28.2614 50.9415 28.2257 51.2273 28.1542C51.512 28.0827 51.75 27.9835 51.9413 27.8567C52.1326 27.7299 52.2749 27.5812 52.3683 27.4083C52.4617 27.2365 52.5095 27.0497 52.5095 26.848C52.5095 26.5747 52.4339 26.3315 52.2838 26.117C52.1337 25.9026 51.9279 25.7043 51.6688 25.5233C51.4086 25.3411 51.1006 25.1659 50.7436 24.9976C50.3866 24.8293 50.0019 24.6563 49.5882 24.4811C48.5362 24.0269 47.7511 23.4712 47.2351 22.8152C46.718 22.1592 46.46 21.3672 46.46 20.4391C46.46 19.7116 46.6012 19.0868 46.8825 18.5645C47.1639 18.0422 47.5476 17.6111 48.0335 17.2744C48.5184 16.9366 49.0811 16.6888 49.7205 16.5297C50.3599 16.3706 51.0361 16.291 51.75 16.291C52.4639 16.291 53.0733 16.3348 53.6149 16.4224C54.1565 16.5101 54.6558 16.645 55.114 16.8271V19.7393C54.8882 19.5767 54.6425 19.4338 54.3767 19.3104C54.1109 19.1871 53.8362 19.0844 53.5549 19.0037C53.2735 18.923 52.9922 18.8619 52.7142 18.8239C52.435 18.7847 52.1704 18.7651 51.9201 18.7651C51.5754 18.7651 51.2629 18.7997 50.9805 18.8677C50.6991 18.9357 50.46 19.0314 50.2665 19.1548C50.0719 19.2781 49.9218 19.4257 49.815 19.5975C49.7083 19.7693 49.6549 19.9629 49.6549 20.1774C49.6549 20.4114 49.7138 20.6201 49.8328 20.8057C49.9518 20.9913 50.1208 21.1666 50.3399 21.3314C50.559 21.4974 50.8248 21.66 51.1384 21.8179C51.452 21.977 51.8056 22.1407 52.2004 22.3102C52.7386 22.5442 53.2224 22.7921 53.6516 23.055C54.0809 23.3178 54.449 23.6153 54.7559 23.9462C55.0628 24.277 55.2975 24.6552 55.4609 25.0806C55.6233 25.506 55.7056 26.0006 55.7056 26.5655C55.7056 27.3449 55.5632 27.9985 55.2786 28.5277C54.9939 29.0569 54.6069 29.4858 54.1187 29.8132C53.6305 30.1406 53.0622 30.3769 52.4139 30.5199C51.7656 30.6628 51.0817 30.7343 50.361 30.7343C49.6404 30.7343 48.9187 30.6698 48.2515 30.5395C47.5842 30.4092 47.0071 30.2144 46.5178 29.955L46.5156 29.9573Z" fill="#F1F2F2"/>
<path fill-rule="evenodd" clip-rule="evenodd" d="M51.75 16.4845C51.0507 16.4845 50.3905 16.5624 49.7677 16.7173C49.1486 16.8714 48.6082 17.1102 48.1451 17.4329L48.1446 17.4332C47.6842 17.7522 47.321 18.1601 47.0539 18.6559C46.7907 19.1445 46.6543 19.7366 46.6543 20.4392C46.6543 21.3294 46.9009 22.0781 47.3881 22.6961C47.878 23.3189 48.6325 23.8578 49.665 24.3037C50.0809 24.4799 50.4678 24.6538 50.8269 24.8231C51.1917 24.9951 51.5097 25.1757 51.7807 25.3654C51.7808 25.3654 51.7807 25.3654 51.7807 25.3654C52.0545 25.5567 52.2778 25.7703 52.4433 26.0068C52.617 26.2548 52.7039 26.5369 52.7039 26.8481C52.7039 27.0815 52.6483 27.2999 52.5394 27.5001C52.4284 27.7056 52.262 27.8766 52.0491 28.0177C51.8351 28.1596 51.5754 28.2663 51.2749 28.3417C50.9699 28.418 50.6195 28.4548 50.2265 28.4548C49.5519 28.4548 48.8841 28.3328 48.2238 28.0876C48.2238 28.0876 48.2239 28.0877 48.2238 28.0876C47.6856 27.8887 47.181 27.6081 46.71 27.2484V29.8364C47.1576 30.0597 47.6826 30.2316 48.289 30.35C48.9426 30.4776 49.6517 30.5412 50.3611 30.5412C51.0687 30.5412 51.7384 30.471 52.3719 30.3314C52.9992 30.193 53.5443 29.9655 54.01 29.6531C54.4713 29.3437 54.8371 28.9388 55.1072 28.4367C55.373 27.9427 55.5112 27.3224 55.5112 26.5657C55.5112 26.0193 55.4316 25.5488 55.2794 25.1497C55.1246 24.7469 54.9029 24.3899 54.613 24.0774C54.3194 23.7608 53.9654 23.4743 53.5497 23.2197C53.1295 22.9624 52.6542 22.7187 52.123 22.4877C51.7255 22.317 51.3682 22.1517 51.0503 21.9904C50.7288 21.8284 50.4526 21.66 50.2223 21.4855C49.9893 21.31 49.8029 21.1187 49.669 20.9098C49.5287 20.691 49.4606 20.4458 49.4606 20.1775C49.4606 19.9296 49.5227 19.7003 49.6497 19.496C49.7737 19.2966 49.9458 19.1291 50.1619 18.9921C50.3777 18.8545 50.6379 18.7518 50.9346 18.6801C51.2342 18.6079 51.5625 18.572 51.9202 18.572C52.1804 18.572 52.4541 18.5924 52.741 18.6326C53.0291 18.6721 53.3196 18.7352 53.6088 18.8182C53.8999 18.9017 54.184 19.0079 54.4589 19.1354C54.6192 19.2098 54.7728 19.2912 54.9196 19.3797V16.9597C54.5095 16.8068 54.0646 16.6912 53.5837 16.6134C53.0548 16.5278 52.4561 16.4845 51.75 16.4845ZM46.5578 30.1929L46.3212 30.4379V26.4143L46.6435 26.6946C47.172 27.1541 47.7435 27.4977 48.3593 27.7253C48.9778 27.955 49.6001 28.0683 50.2265 28.0683C50.5963 28.0683 50.9133 28.0336 51.1798 27.9669C51.4487 27.8994 51.6649 27.8078 51.8335 27.6961C52.0031 27.5836 52.1213 27.4573 52.1971 27.317L52.1974 27.3165C52.2753 27.1733 52.3152 27.0181 52.3152 26.8481C52.3152 26.6128 52.2509 26.4084 52.1243 26.2276C51.9896 26.0352 51.8015 25.8523 51.5571 25.6816C51.3077 25.507 51.0095 25.337 50.6603 25.1724C50.3057 25.0051 49.9233 24.8333 49.512 24.6591L49.5108 24.6585C48.4396 24.196 47.624 23.6234 47.082 22.9344C46.5351 22.2405 46.2656 21.4052 46.2656 20.4392C46.2656 19.687 46.4117 19.0293 46.7112 18.4734C47.0068 17.9248 47.4109 17.4704 47.9222 17.1161C48.4287 16.7633 49.0137 16.5065 49.6734 16.3423C50.3294 16.1791 51.0215 16.0979 51.75 16.0979C52.4718 16.0979 53.092 16.1422 53.6462 16.2318C54.2002 16.3215 54.7134 16.4599 55.1861 16.6478L55.3084 16.6964V20.118L55 19.896C54.7847 19.741 54.5497 19.6042 54.2945 19.4857C54.0378 19.3666 53.7726 19.2675 53.501 19.1896C53.2277 19.1112 52.9555 19.0522 52.6877 19.0155L52.687 19.0154C52.4158 18.9773 52.1602 18.9585 51.9202 18.9585C51.5885 18.9585 51.2916 18.9918 51.0264 19.0557M46.5578 30.1929C47.0375 30.4293 47.5898 30.6074 48.2141 30.7293C48.8949 30.8622 49.6292 30.9278 50.3611 30.9278C51.0947 30.9278 51.7928 30.855 52.456 30.7087C53.1253 30.5612 53.7167 30.316 54.2274 29.9736C54.7425 29.6281 55.1507 29.1753 55.45 28.619C55.7536 28.0547 55.9 27.3676 55.9 26.5657C55.9 25.9824 55.815 25.4638 55.6427 25.0122L55.6425 25.0118C55.4704 24.5638 55.2227 24.1645 54.8988 23.8153C54.5786 23.4701 54.1964 23.1617 53.7536 22.8906C53.3154 22.6222 52.8234 22.3703 52.2783 22.1333L52.2774 22.1329C51.8856 21.9647 51.5358 21.8028 51.2267 21.6459L51.2262 21.6457C50.9208 21.4918 50.6655 21.3353 50.4578 21.1779L50.4572 21.1775C50.2523 21.0232 50.1007 20.8642 49.9967 20.702C49.899 20.5495 49.8493 20.3773 49.8493 20.1775C49.8493 19.9966 49.8939 19.8385 49.9804 19.6993C50.0699 19.5552 50.1979 19.4276 50.371 19.3179L50.3714 19.3176C50.5425 19.2086 50.7605 19.12 51.0264 19.0557" fill="white"/>
<path d="M71.5634 20.52L68.7922 30.4936H65.6729L64.2539 24.6496C64.1605 24.26 64.1071 23.8346 64.0937 23.3734H64.037C63.9925 23.8795 63.9303 24.2922 63.8491 24.6104L62.3267 30.4936H59.2452L56.5295 20.52H59.5543L60.8788 27.0269C60.9411 27.3324 60.9878 27.7025 61.02 28.1371H61.0767C61.1079 27.6829 61.1646 27.299 61.2458 26.9877L62.8994 20.52H65.7273L67.2119 27.0269C67.2497 27.1894 67.2931 27.5664 67.3432 28.1567H67.4088C67.4399 27.7797 67.4899 27.4039 67.5589 27.0269L68.8088 20.52H71.5612H71.5634Z" fill="#F1F2F2"/>
<path d="M80.9771 30.4934H78.168V29.0615H78.1302C77.4852 30.1786 76.5299 30.7366 75.2644 30.7366C74.3314 30.7366 73.5964 30.4623 73.0615 29.9135C72.5254 29.3647 72.2585 28.6326 72.2585 27.7172C72.2585 25.7827 73.3639 24.6656 75.5747 24.367L78.1869 24.0061C78.1869 22.9155 77.6164 22.3702 76.4766 22.3702C75.3367 22.3702 74.2402 22.7241 73.2071 23.432V21.1135C73.6208 20.8933 74.1857 20.6985 74.903 20.529C75.6203 20.3607 76.2731 20.2754 76.8625 20.2754C79.6059 20.2754 80.9771 21.6946 80.9771 24.5318V30.4922V30.4934ZM78.1869 26.441V25.7689L76.4399 26.0029C75.4757 26.1332 74.9931 26.584 74.9931 27.3564C74.9931 27.7069 75.111 27.9939 75.3456 28.2187C75.5803 28.4436 75.8983 28.5554 76.2998 28.5554C76.8569 28.5554 77.3117 28.3559 77.662 27.9559C78.0123 27.557 78.188 27.052 78.188 26.441H78.1869Z" fill="#F1F2F2"/>
<path d="M86.3327 29.3348H86.2949V35.0819H83.3257V20.5199H86.2949V22.0198H86.3327C87.0655 20.8577 88.0953 20.2766 89.4242 20.2766C90.6708 20.2766 91.6338 20.7193 92.3133 21.6059C92.9928 22.4925 93.3331 23.6984 93.3331 25.2248C93.3331 26.8872 92.9372 28.2211 92.1443 29.2276C91.3514 30.2341 90.2983 30.7379 88.9827 30.7379C87.8239 30.7379 86.941 30.2698 86.3327 29.3348ZM86.2482 25.2444V26.0433C86.2482 26.7316 86.4239 27.2931 86.7742 27.7288C87.1245 28.1635 87.5849 28.3814 88.1553 28.3814C88.8315 28.3814 89.3564 28.1104 89.7289 27.5686C90.1014 27.0267 90.2883 26.2589 90.2883 25.2651C90.2883 23.5116 89.631 22.6354 88.3155 22.6354C87.7083 22.6354 87.2112 22.8741 86.8264 23.3513C86.4417 23.8286 86.2482 24.4604 86.2482 25.2455V25.2444Z" fill="#F1F2F2"/>
<path d="M106.608 29.5584C105.292 30.3447 103.657 30.7366 101.704 30.7366C99.5361 30.7366 97.828 30.1152 96.578 28.8713C95.3281 27.6273 94.7031 25.9153 94.7031 23.7329C94.7031 21.5505 95.3859 19.7497 96.7515 18.3662C98.1171 16.9827 99.9331 16.291 102.201 16.291C103.628 16.291 104.887 16.4951 105.977 16.9043V19.8557C104.937 19.232 103.666 18.9207 102.163 18.9207C100.904 18.9207 99.8786 19.345 99.0857 20.1924C98.2928 21.0397 97.8969 22.1719 97.8969 23.5865C97.8969 25.001 98.2528 26.132 98.9634 26.9171C99.674 27.7034 100.634 28.0954 101.844 28.0954C102.57 28.0954 103.146 27.9882 103.572 27.7737V25.046H100.875V22.5327H106.607V29.5549L106.608 29.5584Z" fill="#F1F2F2"/>
<path fill-rule="evenodd" clip-rule="evenodd" d="M102.2 16.4845C99.976 16.4845 98.2132 17.1614 96.8901 18.5018C95.5651 19.8441 94.8974 21.5938 94.8974 23.733C94.8974 25.8772 95.5102 27.5354 96.7154 28.7348C97.921 29.9346 99.5752 30.5435 101.703 30.5435C103.584 30.5435 105.15 30.1756 106.412 29.4488V22.7262H101.069V24.8529H103.766V27.8927L103.659 27.9463C103.196 28.1797 102.586 28.2888 101.844 28.2888C100.587 28.2888 99.5717 27.8795 98.8188 27.0466C98.0659 26.2147 97.7025 25.0313 97.7025 23.5866C97.7025 22.1347 98.1098 20.9516 98.9433 20.0609C99.7762 19.1708 100.855 18.7276 102.163 18.7276C103.556 18.7276 104.765 18.9904 105.783 19.5248V17.0393C104.748 16.6705 103.555 16.4845 102.2 16.4845ZM96.6127 18.231C98.0209 16.8044 99.8901 16.0979 102.2 16.0979C103.647 16.0979 104.93 16.3045 106.046 16.7237L106.171 16.7709V20.1982L105.877 20.0214C104.874 19.4197 103.639 19.1142 102.163 19.1142C100.953 19.1142 99.9809 19.5195 99.2279 20.3242C98.4756 21.1282 98.0912 22.2093 98.0912 23.5866C98.0912 24.9711 98.4395 26.0496 99.1078 26.788C99.7762 27.5275 100.68 27.9023 101.844 27.9023C102.491 27.9023 102.999 27.8147 103.377 27.6512V25.2394H100.681V22.3396H106.801V29.5249L106.84 29.6454L106.708 29.7242C105.355 30.5329 103.683 30.9301 101.703 30.9301C99.4968 30.9301 97.7348 30.2962 96.4405 29.008C95.1458 27.7196 94.5087 25.9536 94.5087 23.733C94.5087 21.5074 95.2065 19.6555 96.6127 18.231Z" fill="white"/>
<path d="M112.264 25.6814V30.4935H109.229V16.5264H113.983C117.378 16.5264 119.075 18.0101 119.075 20.9776C119.075 22.3807 118.588 23.5151 117.614 24.3821C116.639 25.2491 115.338 25.6826 113.71 25.6826H112.264V25.6814ZM112.264 18.9417V23.2961H113.457C115.073 23.2961 115.881 22.5629 115.881 21.0952C115.881 19.6276 115.073 18.9428 113.457 18.9428H112.264V18.9417Z" fill="#F1F2F2"/>
<path fill-rule="evenodd" clip-rule="evenodd" d="M109.034 16.333H113.983C115.705 16.333 117.032 16.7087 117.93 17.4939C118.833 18.2834 119.269 19.4571 119.269 20.9776C119.269 22.4307 118.762 23.6193 117.743 24.526C116.725 25.432 115.374 25.8758 113.71 25.8758H112.458V30.6867H109.034V16.333ZM112.069 25.6813H112.264V25.4892H113.71C115.303 25.4892 116.554 25.066 117.484 24.238C118.413 23.4108 118.881 22.3305 118.881 20.9776C118.881 19.5305 118.468 18.4786 117.674 17.7843C116.875 17.0857 115.656 16.7196 113.983 16.7196H109.423V30.3002H112.069V25.6813ZM112.264 18.7494H113.457C114.288 18.7494 114.949 18.9248 115.403 19.3237C115.863 19.7268 116.075 20.3267 116.075 21.0952C116.075 21.8635 115.863 22.4738 115.406 22.8887C114.952 23.3005 114.291 23.4893 113.457 23.4893H112.069V18.9416H112.264V18.7494ZM112.458 19.136V23.1027H113.457C114.239 23.1027 114.789 22.9249 115.144 22.6032C115.495 22.2845 115.687 21.7944 115.687 21.0952C115.687 20.396 115.495 19.9197 115.146 19.6135C114.793 19.303 114.242 19.136 113.457 19.136H112.458Z" fill="white"/>
<path d="M130.51 19.0881H126.668V30.4935H123.624V19.0881H119.8V16.5264H130.51V19.0881Z" fill="#F1F2F2"/>
<path fill-rule="evenodd" clip-rule="evenodd" d="M119.606 16.333H130.705V19.2813H126.862V30.6867H123.43V19.2813H119.606V16.333ZM119.994 16.7196V18.8947H123.819V30.3002H126.474V18.8947H130.316V16.7196H119.994Z" fill="white"/>
</g>
<defs>
<linearGradient id="paint0_linear_589_281" x1="12.0863" y1="22.4567" x2="27.8519" y2="22.4567" gradientUnits="userSpaceOnUse">
<stop offset="0.02" stop-color="#E8E9EA"/>
<stop offset="0.29" stop-color="#E3E4E5"/>
<stop offset="0.6" stop-color="#D5D6D8"/>
<stop offset="0.93" stop-color="#BDBFC1"/>
<stop offset="0.95" stop-color="#BDBFC1"/>
</linearGradient>
<linearGradient id="paint1_linear_589_281" x1="0.533203" y1="23.0331" x2="39.0714" y2="23.0331" gradientUnits="userSpaceOnUse">
<stop stop-color="#F3F4F4"/>
<stop offset="0.5" stop-color="#F0F1F1"/>
<stop offset="0.82" stop-color="#E7E8E9"/>
<stop offset="1" stop-color="#DFE0E2"/>
</linearGradient>
<linearGradient id="paint2_linear_589_281" x1="11.5226" y1="22.8752" x2="27.1236" y2="22.8752" gradientUnits="userSpaceOnUse">
<stop stop-color="#F8F8F9"/>
<stop offset="0.91" stop-color="#DBDCDE"/>
</linearGradient>
<clipPath id="clip0_589_281">
<rect width="131" height="46" fill="white" transform="translate(0.0883789 0.518555)"/>
</clipPath>
</defs>
</svg>
