<svg width="32" height="32" viewBox="0 0 32 32" fill="none" xmlns="http://www.w3.org/2000/svg">
<g clip-path="url(#clip0_0_1)">
<path d="M14.1693 17.2823C14.2021 17.3037 14.2288 17.3343 14.2465 17.3709C14.2643 17.4075 14.2723 17.4487 14.2699 17.4898C14.2689 17.5314 14.2564 17.5716 14.234 17.6054C14.2116 17.6392 14.1803 17.6649 14.1442 17.6794C13.2007 18.1148 12.3964 18.8383 11.8305 19.7605C11.2646 20.6827 10.9618 21.7632 10.9597 22.8686C10.9597 22.9883 11.0039 23.103 11.0824 23.1877C11.161 23.2723 11.2676 23.3198 11.3787 23.3198H21.0158C21.127 23.3198 21.2335 23.2723 21.3121 23.1877C21.3907 23.103 21.4348 22.9883 21.4348 22.8686C21.4324 21.7609 21.1276 20.6785 20.5585 19.7558C19.9893 18.8332 19.1809 18.1111 18.2336 17.6794C18.1986 17.6608 18.1685 17.6327 18.1465 17.5979C18.1245 17.5631 18.1112 17.5228 18.1079 17.4808C18.1072 17.4399 18.116 17.3995 18.1336 17.3632C18.1511 17.3269 18.1769 17.296 18.2085 17.2733C18.5143 17.0847 18.796 16.8542 19.0465 16.5874C19.5929 15.9853 19.9622 15.223 20.108 14.3959C20.2539 13.5688 20.17 12.7138 19.8667 11.9378C19.5634 11.1619 19.0542 10.4996 18.403 10.0339C17.7517 9.56823 16.9874 9.31982 16.2057 9.31982C15.4239 9.31982 14.6596 9.56823 14.0083 10.0339C13.3571 10.4996 12.848 11.1619 12.5447 11.9378C12.2414 12.7138 12.1574 13.5688 12.3033 14.3959C12.4492 15.223 12.8184 15.9853 13.3648 16.5874C13.6026 16.8571 13.8732 17.0909 14.1693 17.2823ZM13.8928 13.6182C13.892 13.4483 13.9089 13.2788 13.943 13.1129C13.9597 13.0432 13.9901 12.9782 14.032 12.9221C14.0739 12.8661 14.1264 12.8204 14.1861 12.788C14.2456 12.7547 14.3117 12.7374 14.3788 12.7374C14.4459 12.7374 14.512 12.7547 14.5715 12.788C15.3746 13.3051 16.2923 13.5794 17.228 13.5821C17.4749 13.5794 17.7213 13.5583 17.9655 13.519C18.0312 13.5084 18.0984 13.5153 18.1611 13.5388C18.2239 13.5624 18.2804 13.602 18.3258 13.6543C18.372 13.7045 18.4061 13.7662 18.4251 13.8338C18.444 13.9014 18.4474 13.9731 18.4348 14.0424C18.337 14.6506 18.0308 15.1972 17.5768 15.5739C17.1227 15.9506 16.5539 16.1301 15.9829 16.0768C15.4118 16.0234 14.8802 15.7412 14.4931 15.2859C14.1061 14.8307 13.8918 14.2355 13.8928 13.6182Z" fill="white"/>
<ellipse cx="16.1973" cy="14.2022" rx="2.85277" ry="2.67579" fill="white"/>
</g>
<circle cx="16.1973" cy="15.7626" r="15" stroke="white"/>
<defs>
<clipPath id="clip0_0_1">
<rect width="13" height="14" fill="white" transform="translate(9.69727 9.31982)"/>
</clipPath>
</defs>
</svg>


