<svg width="74" height="94" viewBox="0 0 74 94" fill="none" xmlns="http://www.w3.org/2000/svg">
<path fillRule="evenodd" clipRule="evenodd" d="M37.0563 54.5126C51.3675 54.5126 62.969 42.911 62.969 28.5998C62.969 14.2887 51.3675 2.68714 37.0563 2.68714C22.7451 2.68714 11.1436 14.2887 11.1436 28.5998C11.1436 42.911 22.7451 54.5126 37.0563 54.5126ZM37.0563 57.065C52.7771 57.065 65.5214 44.3207 65.5214 28.5998C65.5214 12.879 52.7771 0.134712 37.0563 0.134712C21.3354 0.134712 8.59113 12.879 8.59113 28.5998C8.59113 44.3207 21.3354 57.065 37.0563 57.065Z" fill="white"/>
<path fillRule="evenodd" clipRule="evenodd" d="M37.8678 15.8403C37.7119 15.5967 37.4425 15.4493 37.1532 15.4493C36.8639 15.4493 36.5945 15.5966 36.4385 15.8403L22.597 37.4551C22.4297 37.7163 22.4183 38.048 22.5671 38.3201C22.716 38.5922 23.0015 38.7614 23.3116 38.7614H50.9919C51.302 38.7614 51.5875 38.5922 51.7363 38.3201C51.8852 38.048 51.8738 37.7164 51.7066 37.4552L37.8678 15.8403ZM25.8731 37.0642H48.4308C45.2802 34.6812 41.2936 33.3576 37.1517 33.3576C33.01 33.3576 29.0254 34.6811 25.8731 37.0642ZM47.8925 34.6456L45.4995 30.908C45.4456 30.8949 45.3922 30.8764 45.3399 30.852C40.2031 28.4582 34.0976 28.4583 28.9636 30.852C28.9117 30.8761 28.8587 30.8946 28.8052 30.9077L26.4112 34.646C29.5742 32.7091 33.3086 31.6604 37.1517 31.6604C40.9943 31.6604 44.73 32.7089 47.8925 34.6456ZM32.3584 25.359L30.3697 28.4645C34.7435 26.9908 39.5607 26.9911 43.9357 28.4655L41.9261 25.3267C38.7935 24.5548 35.4861 24.5656 32.3584 25.359ZM40.6516 23.336C38.3329 22.9595 35.9577 22.9662 33.641 23.356L37.1531 17.8716L40.6516 23.336Z" fill="white"/>
<path d="M14.3851 93.6912L9.00944 71.5672H5.62248L0.184692 93.6912H3.85131L4.72136 89.3099H9.84841L10.7495 93.6912H14.3851ZM9.19588 86.1716H5.40496L7.30042 76.9118L9.19588 86.1716Z" fill="white"/>
<path d="M31.4993 93.6912L28.2055 83.8721C30.2253 82.7846 30.7846 80.827 30.7846 78.0926C30.7846 73.5248 29.1688 71.5672 25.1293 71.5672H19.5362V93.6912H23.0163V84.6179H24.9739L27.8637 93.6912H31.4993ZM27.3044 78.0926C27.3044 79.9259 27.0248 81.4795 25.1604 81.4795H23.0163V74.7056H25.1604C27.0248 74.7056 27.3044 76.2593 27.3044 78.0926Z" fill="white"/>
<path d="M40.9622 93.6912V71.5672H37.4821V93.6912H40.9622Z" fill="white"/>
<path d="M57.1023 93.6912V90.5529H51.2916V84.1207H56.2944V80.9824H51.2916V74.7056H57.1023V71.5672H47.8114V93.6912H57.1023Z" fill="white"/>
<path d="M73.9278 87.5698C73.9278 83.8411 73.2132 82.4428 70.5719 81.3552L67.9618 80.2987C66.4081 79.6773 66.1285 79.118 66.1285 77.3157C66.1285 76.3525 66.3149 75.6067 66.7189 75.1406C67.0607 74.7677 67.4957 74.5192 68.2104 74.5192C68.9561 74.5192 69.4533 74.7677 69.764 75.1717C70.2301 75.7621 70.2923 76.5389 70.2923 77.5332H73.7725C73.7725 75.4203 73.3685 73.8356 72.2188 72.7169C71.3177 71.8469 70.0126 71.3808 68.2415 71.3808C66.6567 71.3808 65.4138 71.878 64.4506 72.7169C63.2387 73.8045 62.6483 75.4203 62.6483 77.409C62.6483 80.827 63.4873 82.0388 65.7245 82.971L68.3658 84.0586C70.0748 84.7422 70.4477 85.3326 70.4477 87.6941C70.4477 88.8749 70.3234 89.6207 69.8573 90.1489C69.5155 90.5529 68.9872 90.7704 68.1793 90.7704C67.4025 90.7704 66.8743 90.5218 66.5635 90.18C66.0664 89.6207 65.9421 88.8749 65.9421 87.6941H62.4619C62.4619 90.0246 62.8348 91.3918 63.8912 92.4483C64.8234 93.3805 66.2528 93.9087 68.1793 93.9087C70.1369 93.9087 71.5974 93.3184 72.4985 92.4483C73.6171 91.3608 73.9278 89.8382 73.9278 87.5698Z" fill="white"/>
</svg>