<svg width="101" height="95" viewBox="0 0 101 95" fill="none" xmlns="http://www.w3.org/2000/svg">
<path d="M24.433 94.41H23.0422V86.839H24.433V94.41ZM27.2026 86.9599H20.2847V85.7626H27.2026V86.9599ZM34.7572 94.41H33.3664V85.7626H36.8253C37.4219 85.7626 37.946 85.8715 38.3975 86.0892C38.8491 86.2988 39.1998 86.5971 39.4497 86.9841C39.7077 87.3631 39.8367 87.8106 39.8367 88.3266C39.8367 88.8345 39.7077 89.282 39.4497 89.669C39.1998 90.0561 38.8491 90.3584 38.3975 90.5761C37.946 90.7857 37.4219 90.8906 36.8253 90.8906H34.6363V89.7053H36.8253C37.3171 89.7053 37.7041 89.5844 37.9863 89.3425C38.2766 89.0926 38.4217 88.7539 38.4217 88.3266C38.4217 87.8993 38.2766 87.5647 37.9863 87.3228C37.7041 87.0728 37.3171 86.9479 36.8253 86.9479H34.7572V94.41ZM40.7075 94.41H38.9781L35.8336 90.3826H37.43L40.7075 94.41ZM52.5675 92.3298H47.5848V91.1445H52.5675V92.3298ZM54.2849 94.41H52.8094L49.8464 86.706H50.3059L47.3429 94.41H45.9158L49.3384 85.7626H50.8623L54.2849 94.41ZM60.427 94.41V85.7626H63.3659C64.2851 85.7626 65.0873 85.9481 65.7727 86.319C66.4661 86.6898 67.0022 87.2018 67.3812 87.8549C67.7682 88.4999 67.9617 89.2417 67.9617 90.0802C67.9617 90.9188 67.7682 91.6646 67.3812 92.3177C67.0022 92.9707 66.4661 93.4827 65.7727 93.8536C65.0873 94.2245 64.2851 94.41 63.3659 94.41H60.427ZM61.8179 93.2126H63.3659C64.011 93.2126 64.5673 93.0836 65.0349 92.8256C65.5106 92.5595 65.8735 92.1927 66.1234 91.725C66.3814 91.2574 66.5104 90.7091 66.5104 90.0802C66.5104 89.4513 66.3814 88.9031 66.1234 88.4354C65.8735 87.9678 65.5106 87.605 65.0349 87.347C64.5673 87.089 64.011 86.9599 63.3659 86.9599H61.8179V93.2126ZM80.2857 94.41H74.3353V85.7626H80.2857V86.9479H75.7262V93.2247H80.2857V94.41ZM80.0559 90.6124H75.6052V89.4272H80.0559V90.6124Z" fill="white"/>
<circle cx="69.5207" cy="61.9869" r="8.28617" stroke="white" stroke-width="3.54"/>
<path d="M41.1222 68.4281L42.9584 72.0145H38.9417L37.1054 68.4281L32.7157 59.8208L28.326 68.4281L26.4898 72.0145H22.473L24.3092 68.4281L32.7157 51.9308L41.1222 68.4281Z" fill="white"/>
<path d="M10.5101 55.5171C6.95244 55.5171 4.05464 58.4149 4.05464 61.9726C4.05464 65.5303 6.95244 68.4281 10.5101 68.4281H16.9656V64.5835V60.9971H20.552V72.0145H10.5101C4.97275 72.0145 0.468262 67.51 0.468262 61.9726C0.468262 56.4353 4.97275 51.9308 10.5101 51.9308H20.552V55.5171H10.5101Z" fill="white"/>
<path fill-rule="evenodd" clip-rule="evenodd" d="M85.9854 51.9308H82.3792V72.0431H85.9854V51.9308ZM94.1906 72.0145L90.5314 64.7658H94.5272L98.2073 72.0145H94.1906Z" fill="white"/>
<path fill-rule="evenodd" clip-rule="evenodd" d="M39.3523 51.9308L39.3523 55.537L47.6054 55.537V72.0431H51.2117V55.537L59.4646 55.537V51.9308L51.2117 51.9308H47.6054L39.3523 51.9308Z" fill="white"/>
<path fill-rule="evenodd" clip-rule="evenodd" d="M85.9192 55.4708H94.1265C95.2627 55.4708 96.9145 56.6674 96.9145 59.1031C96.9145 61.5388 95.2626 62.7354 94.1265 62.7354H89.5491L91.2933 66.2754H94.1265C97.6214 66.2754 100.455 63.0642 100.455 59.1031C100.455 55.1419 97.6214 51.9308 94.1265 51.9308H85.9192H82.3792V55.4708V62.7354V66.2754H85.9192H85.9933V62.7354H85.9192V55.4708Z" fill="white"/>
<path fill-rule="evenodd" clip-rule="evenodd" d="M47.1478 0.4767C37.3204 0.4767 29.3538 8.44335 29.3538 18.2707C29.3538 28.0981 37.3204 36.0647 47.1478 36.0647H69.0692C70.4499 36.0647 71.5692 34.9454 71.5692 33.5647C71.5692 32.184 70.4499 31.0647 69.0692 31.0647H47.1478C40.0818 31.0647 34.3538 25.3367 34.3538 18.2707C34.3538 11.2048 40.0818 5.4767 47.1478 5.4767H69.0692C70.4499 5.4767 71.5692 4.35741 71.5692 2.9767C71.5692 1.59599 70.4499 0.4767 69.0692 0.4767H47.1478ZM47.1478 8.12371C41.5437 8.12371 37.0008 12.6667 37.0008 18.2707C37.0008 23.8748 41.5437 28.4177 47.1478 28.4177H69.0692C70.4499 28.4177 71.5692 27.2984 71.5692 25.9177C71.5692 25.8439 71.566 25.7709 71.5597 25.6987V18.4897C71.566 18.4176 71.5692 18.3445 71.5692 18.2707C71.5692 16.89 70.4499 15.7707 69.0692 15.7707H69.0636C69.0623 15.7707 69.061 15.7707 69.0597 15.7707C69.0585 15.7707 69.0572 15.7707 69.0559 15.7707L47.2685 15.7707C45.8878 15.7707 44.7685 16.89 44.7685 18.2707C44.7685 19.6514 45.8878 20.7707 47.2685 20.7707L66.5597 20.7707V23.4177H47.1478C44.3052 23.4177 42.0008 21.1133 42.0008 18.2707C42.0008 15.4281 44.3052 13.1237 47.1478 13.1237H69.0692C70.4499 13.1237 71.5692 12.0044 71.5692 10.6237C71.5692 9.243 70.4499 8.12371 69.0692 8.12371H47.1478Z" fill="white"/>
</svg>