<svg width="142" height="31" viewBox="0 0 142 31" fill="none" xmlns="http://www.w3.org/2000/svg">
<g clip-path="url(#clip0_457_240)">
<path d="M15.3652 0.947496C15.3652 0.425504 14.947 -0.000756813 14.4326 0.0321029C12.806 0.136008 11.2053 0.511176 9.6957 1.14448C7.89824 1.89852 6.26501 3.00372 4.88929 4.39701C3.5136 5.79029 2.42232 7.44433 1.67778 9.26473C0.933254 11.0852 0.550049 13.0362 0.550049 15.0066C0.550049 16.977 0.933255 18.9281 1.67779 20.7485C2.42232 22.5689 3.5136 24.223 4.88929 25.6163C6.26501 27.0096 7.89824 28.1148 9.6957 28.8688C11.2053 29.5021 12.806 29.8773 14.4326 29.9812C14.947 30.014 15.3652 29.5878 15.3652 29.0658V0.947496Z" fill="white"/>
<path d="M23.2977 4.01923C23.2977 3.49724 22.8791 3.07003 22.3655 3.11299C19.6438 3.34062 17.0765 4.55941 15.1315 6.56905C12.9656 8.80685 11.7489 11.8419 11.7489 15.0066C11.7489 18.1713 12.9656 21.2064 15.1315 23.4442C17.0765 25.4538 19.6438 26.6726 22.3655 26.9003C22.8791 26.9432 23.2977 26.516 23.2977 25.994V4.01923Z" fill="white"/>
<path d="M41.2181 18.1039L39.5592 19.7615V22.8303H36.1089V6.20953H39.5592V15.6175L44.6021 10.7791H48.7159L43.7616 15.8863L49.1583 22.8303H44.9781L41.2181 18.1039Z" fill="white"/>
<path d="M62.2678 10.7791V22.8303H58.9723V21.4415C58.1172 22.4868 56.8786 23.0095 55.2565 23.0095C54.136 23.0095 53.1186 22.7556 52.2043 22.2479C51.305 21.7402 50.5972 21.0159 50.081 20.0751C49.5652 19.1343 49.3069 18.0442 49.3069 16.8047C49.3069 15.5652 49.5652 14.4751 50.081 13.5343C50.5972 12.5935 51.305 11.8692 52.2043 11.3615C53.1186 10.8538 54.136 10.5999 55.2565 10.5999C56.7755 10.5999 57.9624 11.0852 58.8175 12.0559V10.7791H62.2678ZM55.8537 20.1423C56.7238 20.1423 57.4462 19.8436 58.0212 19.2463C58.5963 18.634 58.8838 17.8202 58.8838 16.8047C58.8838 15.7892 58.5963 14.9828 58.0212 14.3855C57.4462 13.7732 56.7238 13.4671 55.8537 13.4671C54.969 13.4671 54.2391 13.7732 53.6641 14.3855C53.089 14.9828 52.8015 15.7892 52.8015 16.8047C52.8015 17.8202 53.089 18.634 53.6641 19.2463C54.2391 19.8436 54.969 20.1423 55.8537 20.1423Z" fill="white"/>
<path d="M72.6946 10.5999C74.1694 10.5999 75.3562 11.0479 76.2556 11.9439C77.1699 12.8399 77.6269 14.169 77.6269 15.9311V22.8303H74.1765V16.4687C74.1765 15.513 73.9703 14.8036 73.5572 14.3407C73.1445 13.8628 72.5473 13.6239 71.7657 13.6239C70.896 13.6239 70.2028 13.9002 69.6866 14.4527C69.1708 14.9903 68.9125 15.7967 68.9125 16.8719V22.8303H65.4622V10.7791H68.7577V12.1903C69.215 11.6826 69.7826 11.2943 70.4607 11.0255C71.1393 10.7418 71.8838 10.5999 72.6946 10.5999Z" fill="white"/>
<path d="M92.9603 10.7791V22.8303H89.6648V21.4415C88.8097 22.4868 87.5711 23.0095 85.949 23.0095C84.8285 23.0095 83.8111 22.7556 82.8968 22.2479C81.9975 21.7402 81.2897 21.0159 80.7735 20.0751C80.2577 19.1343 79.9994 18.0442 79.9994 16.8047C79.9994 15.5652 80.2577 14.4751 80.7735 13.5343C81.2897 12.5935 81.9975 11.8692 82.8968 11.3615C83.8111 10.8538 84.8285 10.5999 85.949 10.5999C87.468 10.5999 88.6549 11.0852 89.51 12.0559V10.7791H92.9603ZM86.5462 20.1423C87.4163 20.1423 88.1387 19.8436 88.7137 19.2463C89.2888 18.634 89.5763 17.8202 89.5763 16.8047C89.5763 15.7892 89.2888 14.9828 88.7137 14.3855C88.1387 13.7732 87.4163 13.4671 86.5462 13.4671C85.6615 13.4671 84.9316 13.7732 84.3566 14.3855C83.7815 14.9828 83.494 15.7892 83.494 16.8047C83.494 17.8202 83.7815 18.634 84.3566 19.2463C84.9316 19.8436 85.6615 20.1423 86.5462 20.1423Z" fill="white"/>
<path d="M100.025 22.9423C98.9787 22.9423 98.1675 22.6437 97.5924 22.0463C97.0324 21.449 96.752 20.6202 96.752 19.5599V6.20953H98.3223V19.4255C98.3223 20.1274 98.4846 20.665 98.8089 21.0383C99.1336 21.3967 99.6201 21.5759 100.269 21.5759C100.682 21.5759 101.036 21.5087 101.33 21.3743L101.441 22.6959C100.984 22.8602 100.512 22.9423 100.025 22.9423Z" fill="white"/>
<path d="M113.978 11.0479V22.8303H112.474V20.5007C112.002 21.2922 111.375 21.897 110.594 22.3151C109.827 22.7332 108.957 22.9423 107.984 22.9423C106.893 22.9423 105.905 22.6884 105.02 22.1807C104.136 21.673 103.443 20.9636 102.941 20.0527C102.44 19.1418 102.189 18.1039 102.189 16.9391C102.189 15.7743 102.44 14.7364 102.941 13.8255C103.443 12.9146 104.136 12.2127 105.02 11.7199C105.905 11.2122 106.893 10.9583 107.984 10.9583C108.928 10.9583 109.776 11.1599 110.528 11.5631C111.294 11.9514 111.921 12.5263 112.408 13.2879V11.0479H113.978ZM108.117 21.5311C108.928 21.5311 109.658 21.3444 110.307 20.9711C110.97 20.5828 111.486 20.0378 111.855 19.3359C112.238 18.634 112.43 17.8351 112.43 16.9391C112.43 16.0431 112.238 15.2442 111.855 14.5423C111.486 13.8404 110.97 13.3028 110.307 12.9295C109.658 12.5412 108.928 12.3471 108.117 12.3471C107.291 12.3471 106.547 12.5412 105.883 12.9295C105.234 13.3028 104.718 13.8404 104.335 14.5423C103.966 15.2442 103.782 16.0431 103.782 16.9391C103.782 17.8351 103.966 18.634 104.335 19.3359C104.718 20.0378 105.234 20.5828 105.883 20.9711C106.547 21.3444 107.291 21.5311 108.117 21.5311Z" fill="white"/>
<path d="M124.345 10.9583C125.436 10.9583 126.424 11.2122 127.309 11.7199C128.194 12.2127 128.887 12.9146 129.388 13.8255C129.889 14.7364 130.14 15.7743 130.14 16.9391C130.14 18.1039 129.889 19.1418 129.388 20.0527C128.887 20.9636 128.194 21.673 127.309 22.1807C126.424 22.6884 125.436 22.9423 124.345 22.9423C123.372 22.9423 122.495 22.7332 121.713 22.3151C120.946 21.897 120.327 21.2922 119.855 20.5007V22.8303H118.351V6.20953H119.922V13.2879C120.408 12.5263 121.028 11.9514 121.78 11.5631C122.546 11.1599 123.401 10.9583 124.345 10.9583ZM124.235 21.5311C125.046 21.5311 125.783 21.3444 126.446 20.9711C127.11 20.5828 127.626 20.0378 127.995 19.3359C128.378 18.634 128.57 17.8351 128.57 16.9391C128.57 16.0431 128.378 15.2442 127.995 14.5423C127.626 13.8404 127.11 13.3028 126.446 12.9295C125.783 12.5412 125.046 12.3471 124.235 12.3471C123.409 12.3471 122.664 12.5412 122.001 12.9295C121.352 13.3028 120.836 13.8404 120.453 14.5423C120.084 15.2442 119.9 16.0431 119.9 16.9391C119.9 17.8351 120.084 18.634 120.453 19.3359C120.836 20.0378 121.352 20.5828 122.001 20.9711C122.664 21.3444 123.409 21.5311 124.235 21.5311Z" fill="white"/>
<path d="M136.46 22.9423C135.516 22.9423 134.609 22.8079 133.739 22.5391C132.884 22.2554 132.213 21.9044 131.727 21.4863L132.434 20.2319C132.921 20.6202 133.533 20.9412 134.27 21.1951C135.008 21.434 135.774 21.5535 136.57 21.5535C137.632 21.5535 138.414 21.3892 138.915 21.0607C139.431 20.7172 139.689 20.2394 139.689 19.6271C139.689 19.194 139.549 18.858 139.269 18.6191C138.989 18.3652 138.635 18.1786 138.207 18.0591C137.779 17.9247 137.212 17.7978 136.504 17.6783C135.561 17.4991 134.801 17.3199 134.226 17.1407C133.651 16.9466 133.157 16.6255 132.744 16.1775C132.346 15.7295 132.147 15.1098 132.147 14.3183C132.147 13.3327 132.553 12.5263 133.363 11.8991C134.174 11.2719 135.302 10.9583 136.747 10.9583C137.499 10.9583 138.251 11.0628 139.003 11.2719C139.755 11.466 140.375 11.7274 140.861 12.0559L140.176 13.3327C139.217 12.6607 138.074 12.3247 136.747 12.3247C135.745 12.3247 134.985 12.5039 134.469 12.8623C133.968 13.2207 133.717 13.6911 133.717 14.2735C133.717 14.7215 133.857 15.0799 134.138 15.3487C134.433 15.6175 134.794 15.8191 135.221 15.9535C135.649 16.073 136.239 16.1999 136.991 16.3343C137.92 16.5135 138.664 16.6927 139.225 16.8719C139.785 17.0511 140.264 17.3572 140.662 17.7903C141.06 18.2234 141.259 18.8207 141.259 19.5823C141.259 20.6127 140.832 21.434 139.977 22.0463C139.136 22.6436 137.964 22.9423 136.46 22.9423Z" fill="white"/>
</g>
<defs>
<clipPath id="clip0_457_240">
<rect width="141" height="30" fill="white" transform="translate(0.550049 0.0217285)"/>
</clipPath>
</defs>
</svg>