<svg width="32" height="32" viewBox="0 0 32 32" fill="none" xmlns="http://www.w3.org/2000/svg">
<g clip-path="url(#clip0_388_760)">
<path d="M16.1973 0.130371C7.64904 0.130371 0.697266 7.07567 0.697266 15.6159C0.697266 21.7542 4.29083 27.0728 9.48717 29.5764V29.5891H9.51262C11.5352 30.5613 13.8058 31.1078 16.1973 31.1078C24.7454 31.1078 31.6973 24.1625 31.6973 15.6223C31.6973 7.07567 24.7454 0.130371 16.1973 0.130371ZM16.1973 1.40124C24.0395 1.40124 30.4252 7.78101 30.4252 15.6159C30.4252 17.8653 29.8973 20.0005 28.9623 21.894C26.9143 20.9027 24.8345 20.1657 22.7356 19.6636V7.80643C22.7356 7.39339 22.4113 7.06296 22.0042 7.06296H19.3965H12.8263H10.2186C9.81791 7.06296 9.48717 7.39339 9.48717 7.80643V19.7209C7.45189 20.2228 5.42931 20.9472 3.43855 21.9003C2.49723 20.0005 1.96932 17.8717 1.96932 15.6159C1.96932 7.78101 8.35505 1.40124 16.1973 1.40124ZM4.25902 23.33C5.9445 22.4978 7.69357 21.8559 9.49353 21.4111V28.1467C7.36284 27.0093 5.56288 25.3444 4.25902 23.33ZM12.8263 29.4239V13.5571C12.8263 11.7207 14.3337 10.202 16.1336 10.202C17.9336 10.202 19.3965 11.6889 19.3965 13.519C19.3965 13.5317 19.3901 13.5444 19.3901 13.5571H19.3965V19.0791C17.8636 18.9012 16.3245 18.8439 14.7853 18.9266L13.5196 20.7629C15.4912 20.5978 17.412 20.6105 19.3075 20.8266C19.3265 20.8266 19.3392 20.8266 19.3584 20.8329C19.3711 20.8329 19.3838 20.8329 19.4028 20.8393C19.7336 20.8773 20.9357 21.0298 22.036 21.3031L19.4028 22.199V29.4748C18.3724 29.7098 17.304 29.8433 16.21 29.8433C15.0333 29.8306 13.9076 29.6844 12.8263 29.4239ZM22.7293 28.2357V21.4429C24.5228 21.894 26.2974 22.5549 28.0782 23.4191C26.7426 25.4462 24.8981 27.111 22.7293 28.2357Z" fill="#FFFCFC"/>
</g>
<defs>
<clipPath id="clip0_388_760">
<rect width="31" height="31" fill="white" transform="translate(0.697266 0.130371)"/>
</clipPath>
</defs>
</svg>
