<svg width="118" height="20" viewBox="0 0 118 20" fill="none" xmlns="http://www.w3.org/2000/svg">
<g id="Logo 1" clip-path="url(#clip0_92_1045)">
<path id="Vector" d="M29.2489 19.3889C24.0517 19.3889 20.2347 15.2837 20.2347 9.87014C20.2347 4.45654 24.0517 0.737305 29.2489 0.737305H39.0224C39.1606 0.737305 39.274 0.852881 39.274 0.993883V5.20084C39.274 5.34185 39.1606 5.45742 39.0224 5.45742H29.2489C26.6877 5.45742 24.7906 7.43377 24.7906 10.1013C24.7906 12.7688 26.6378 14.6434 29.2489 14.6434H39.0224C39.1606 14.6434 39.274 14.759 39.274 14.9V19.1347C39.274 19.2757 39.1606 19.3913 39.0224 19.3913H29.2489V19.3889Z" fill="white"/>
<path id="Vector_2" d="M50.6208 19.3889C45.3125 19.3889 41.414 15.2837 41.414 9.87008C41.414 4.45653 45.3125 0.737305 50.6208 0.737305H55.2243C60.6845 0.737305 64.456 4.45653 64.456 9.87008C64.456 15.2837 60.5824 19.3889 55.2243 19.3889H50.6208ZM55.2243 14.6434C57.9419 14.6434 59.8277 12.7456 59.8277 10.1013C59.8277 7.45688 57.9147 5.45742 55.2243 5.45742H50.6208C48.0052 5.45742 46.0673 7.43377 46.0673 10.1013C46.0673 12.7687 47.9554 14.6434 50.6208 14.6434H55.2243Z" fill="white"/>
<path id="Vector_3" d="M70.9042 8.83191V19.1182C70.9042 19.2592 70.7908 19.3748 70.6526 19.3748H66.847C66.7088 19.3748 66.5954 19.2592 66.5954 19.1182V3.4438C66.5954 1.77026 67.4771 0.723145 68.8484 0.723145C69.5102 0.723145 69.9749 0.947362 70.5868 1.52293L80.9384 11.2406C81.0994 11.3908 81.3602 11.2752 81.3602 11.051V1.00515C81.3602 0.864147 81.4735 0.748571 81.6114 0.748571H85.4172C85.5551 0.748571 85.6684 0.864147 85.6684 1.00515V16.6541C85.6684 18.3277 84.7622 19.3748 83.4156 19.3748C82.7538 19.3748 82.2642 19.1506 81.677 18.575L71.328 8.64472C71.1671 8.48983 70.9042 8.60771 70.9042 8.83191Z" fill="white"/>
<path id="Vector_4" d="M87.8079 19.1116V0.987047C87.8079 0.843733 87.9212 0.730469 88.0598 0.730469H92.2054C92.3455 0.730469 92.4566 0.846044 92.4566 0.987047V19.1116C92.4566 19.255 92.3433 19.3683 92.2054 19.3683H88.0598C87.9189 19.3683 87.8079 19.2527 87.8079 19.1116Z" fill="white"/>
<path id="Vector_5" d="M108.176 2.23494C107.663 1.32652 107.038 0.741699 106.133 0.741699C105.229 0.741699 104.578 1.3242 104.069 2.23494L94.8115 18.9981C94.7169 19.1691 94.8391 19.3818 95.0314 19.3818H99.3246C99.4177 19.3818 99.5012 19.3309 99.5444 19.2477L101.6 15.4407C101.645 15.3597 101.729 15.3066 101.82 15.3066H110.139C110.229 15.3066 110.315 15.3574 110.358 15.4383L112.418 19.2454C112.464 19.3263 112.548 19.3772 112.638 19.3772H117.21C117.403 19.3772 117.525 19.1645 117.43 18.9934L108.176 2.23494ZM103.771 11.4163L105.748 7.75253C105.843 7.57454 106.093 7.57454 106.19 7.75253L108.176 11.4163C108.268 11.5873 108.146 11.7977 107.956 11.7977H103.993C103.801 11.7977 103.681 11.5873 103.774 11.4163H103.771Z" fill="white"/>
<path id="Vector_6" d="M17.1182 11.6038H8.9449C8.80666 11.6038 8.69331 11.4882 8.69331 11.3472V8.77673C8.69331 8.63575 8.80666 8.52015 8.9449 8.52015H17.1182C17.2564 8.52015 17.3698 8.63575 17.3698 8.77673V11.3472C17.3698 11.4882 17.2564 11.6038 17.1182 11.6038ZM1.20911 19.1301V0.993883C1.20911 0.850569 1.32244 0.737305 1.4607 0.737305H17.7914C17.9296 0.737305 18.043 0.852881 18.043 0.993883V5.20084C18.043 5.34185 17.9296 5.45742 17.7914 5.45742H6.0777C5.93944 5.45742 5.82611 5.573 5.82611 5.714V14.3845C5.82611 14.5255 5.93944 14.6411 6.0777 14.6411H17.8435C17.9818 14.6411 18.095 14.7566 18.095 14.8977V19.1301C18.095 19.271 17.9818 19.3866 17.8435 19.3866H1.4607C1.32244 19.3866 1.20911 19.271 1.20911 19.1301Z" fill="white"/>
</g>
<defs>
<clipPath id="clip0_92_1045">
<rect width="117" height="19" fill="white" transform="translate(0.942474 0.500977)"/>
</clipPath>
</defs>
</svg>
